<svg xmlns="http://www.w3.org/2000/svg" xmlns:xlink="http://www.w3.org/1999/xlink" width="36" height="43" viewBox="0 0 36 43"><defs><path id="mioga" d="M193.96 1627.97l-8.43-4.87a3.25 3.25 0 0 0-4.44 1.19l-5.68 9.83a3.25 3.25 0 0 0 1.2 4.44l1.4.8 1.62-2.8a1.62 1.62 0 0 1-.6-2.22l4.06-7.03a1.62 1.62 0 0 1 2.22-.59l5.62 3.25c.78.44 1.04 1.44.6 2.21l-4.06 7.03a1.62 1.62 0 0 1-2.22.6l-1.62 2.8 1.4.82c1.56.9 3.54.36 4.44-1.2l5.68-9.83c.9-1.55.36-3.54-1.2-4.43zm-15.8 20.86l6.5-11.24a1.62 1.62 0 0 0-2.81-1.63l-6.5 11.25a1.62 1.62 0 1 0 2.82 1.62zm-1.78-6.65l-1.4-.81a3.25 3.25 0 0 0-4.44 1.19l-5.68 9.83a3.25 3.25 0 0 0 1.2 4.44l8.43 4.87c1.55.9 3.53.36 4.43-1.2l5.68-9.83c.9-1.55.36-3.54-1.19-4.43l-1.4-.81-1.63 2.8c.78.45 1.04 1.45.6 2.22l-4.06 7.03a1.62 1.62 0 0 1-2.22.6l-5.62-3.25a1.62 1.62 0 0 1-.6-2.22l4.06-7.03a1.62 1.62 0 0 1 2.22-.59z"/></defs><g><g transform="translate(-162 -1621)"><use fill="#fff" xlink:href="#mioga"/></g></g></svg>